HIERARCHY
ROOT Hips
{
  OFFSET 4.79619 100.597 119.853
  CHANNELS 6 Xposition Yposition Zposition Zrotation Xrotation Yrotation
  JOINT RightUpLeg
  {
    OFFSET -8.9458 -8.66707 0.101652
    CHANNELS 3 Zrotation Xrotation Yrotation
    JOINT RightLeg
    {
      OFFSET 0 -44.4227 1.3727
      CHANNELS 3 Zrotation Xrotation Yrotation
      JOINT RightFoot
      {
        OFFSET 0.253549 -42.0924 -1.46059
        CHANNELS 3 Zrotation Xrotation Yrotation
        JOINT RightToes
        {
          OFFSET 0.04 -4.41509 8.4991
          CHANNELS 3 Zrotation Xrotation Yrotation
          End Site
          {
            OFFSET -0.08 -0.137448 9.77979
          }
        }
      }
    }
  }
  JOINT Spine
  {
    OFFSET 0 11.8905 0
    CHANNELS 3 Zrotation Xrotation Yrotation
    JOINT Spine1
    {
      OFFSET 0 25.6574 0.127663
      CHANNELS 3 Zrotation Xrotation Yrotation
      JOINT HEad
      {
        OFFSET 0 8.73416 0.011341
        CHANNELS 3 Zrotation Xrotation Yrotation
        End Site
        {
          OFFSET -0.29 12.7742 2.51395
        }
      }
      JOINT LeftShoulder1
      {
        OFFSET 8.99 -0.362252 -0.22
        CHANNELS 3 Zrotation Xrotation Yrotation
        JOINT LeftArm
        {
          OFFSET 10.2827 -0.00338 0.322123
          CHANNELS 3 Zrotation Xrotation Yrotation
          JOINT LeftForeArm
          {
            OFFSET 32.7669 0.099144 -1.42434
            CHANNELS 3 Zrotation Xrotation Yrotation
            JOINT LeftHand
            {
              OFFSET 27.5643 0.085362 1.02216
              CHANNELS 3 Zrotation Xrotation Yrotation
              End Site
              {
                OFFSET 16.7443 -0.6 1.50291
              }
            }
          }
        }
      }
      JOINT RightShoulder
      {
        OFFSET -8.99 -0.362252 -0.22
        CHANNELS 3 Zrotation Xrotation Yrotation
        JOINT RightArm
        {
          OFFSET -10.2827 -0.00338 0.322123
          CHANNELS 3 Zrotation Xrotation Yrotation
          JOINT RightForeArm
          {
            OFFSET -32.8971 0.099144 -1.42434
            CHANNELS 3 Zrotation Xrotation Yrotation
            JOINT RightHand
            {
              OFFSET -27.4921 0.085362 1.02216
              CHANNELS 3 Zrotation Xrotation Yrotation
              End Site
              {
                OFFSET -16.6312 -0.6 1.50291
              }
            }
          }
        }
      }
    }
  }
  JOINT LeftUpLeg
  {
    OFFSET 8.9458 -8.66707 0.101652
    CHANNELS 3 Zrotation Xrotation Yrotation
    JOINT LeftLeg
    {
      OFFSET 0 -44.4227 1.3727
      CHANNELS 3 Zrotation Xrotation Yrotation
      JOINT LeftFoot
      {
        OFFSET -0.253549 -42.0924 -1.46059
        CHANNELS 3 Zrotation Xrotation Yrotation
        JOINT LeftToes
        {
          OFFSET -0.04 -4.41509 8.4991
          CHANNELS 3 Zrotation Xrotation Yrotation
          End Site
          {
            OFFSET 0.08 -0.047448 9.77979
          }
        }
      }
    }
  }
}
MOTION
Frames:	14
Frame Time:	0.0166667
12.6105 99.9159 -65.4469 -0.888446 -3.50835 -175.48 2.40654 -18.3156 4.78163 -0.837914 2.35182 -10.2867 -13.1332 10.1747 1.41979 24.5189 10.6473 0.336285 -4.81794 -3.27305 0.122337 -1.21331 -3.58223 0.42955 5.74654 3.06864 -9.55242 2.98177e-016 0 -0 -87.075 -3.21427 -17.1979 -20.1644 22.3397 -50.6133 0.368473 9.90896 -0.00117927 14.8887 -1.66468 -11.1407 44.3931 -43.6643 -32.0142 22.0087 14.3049 12.181 -0.369625 9.91382 0.00119887 -2.30461 1.40431 0.144402 -2.20461 35.1681 12.5068 -0.807852 -2.05429 0.0594824 37.5818 -20.5565 3.87667 
12.6554 100.183 -67.5951 0.570208 -3.77431 -175.893 4.05671 -17.2377 7.59403 -0.44701 2.44026 -12.0033 -12.8642 8.08394 1.14171 25.1069 10.6594 0.379338 -4.17496 -3.25315 0.630594 0.848665 -3.82516 0.595191 5.12247 3.03859 -9.72417 7.95139e-016 7.95139e-016 -7.95139e-016 -88.4613 -4.14192 -15.1293 -20.1019 22.1177 -49.8375 0.368473 9.90896 -0.00117927 14.8906 -1.72133 -11.4034 45.7819 -43.2766 -29.4237 22.0974 14.2979 12.118 -0.369625 9.91382 0.00119887 -0.510299 -0.490076 1.62313 -1.73491 38.2709 13.9195 -0.844654 3.7973 0.132483 52.0664 -23.2598 6.35017 
12.7397 100.328 -69.5456 1.82141 -3.93206 -176.354 5.60631 -16.0498 9.01136 -0.318652 2.22886 -12.3933 -12.6211 6.77692 0.970239 25.8099 10.6657 0.453723 -3.3588 -2.79678 1.00965 2.4004 -4.00396 0.709249 4.90469 2.882 -9.62344 -2.48481e-016 0 7.95139e-016 -89.3598 -5.22778 -13.4481 -20.0537 21.676 -48.251 0.368473 9.90896 -0.00117927 14.1095 -1.7089 -11.6201 49.181 -42.8286 -26.0076 21.9856 14.2993 12.2336 -0.369625 9.91382 0.00119887 1.12658 -2.99566 4.3401 0.222085 41.9346 13.8818 -1.83354 12.5416 0.39569 62.9767 -22.6813 7.08305 
12.8651 100.448 -71.3919 2.74047 -4.01119 -176.65 6.82023 -14.7953 9.61875 -0.311966 1.9099 -12.3664 -12.596 5.70521 0.844942 26.1354 10.6375 0.503908 -2.59624 -2.20365 1.24798 3.37842 -4.03066 0.768924 4.97725 2.54922 -9.48182 -1.2424e-016 3.97569e-016 -1.59028e-015 -89.8476 -6.2657 -12.2793 -20.1057 21.1184 -45.8947 0.368473 9.90896 -0.00117927 13.1659 -1.64899 -11.6596 53.3927 -42.1262 -22.3358 21.8623 14.3888 12.7688 -0.369625 9.91382 0.00119887 2.56136 -5.82619 6.94747 2.62645 45.9673 13.5287 -2.81077 20.8253 0.668375 67.6896 -20.2365 6.32755 
13.0531 100.619 -73.207 3.09154 -3.97245 -176.524 7.32938 -13.4094 9.53466 -0.288816 1.52319 -12.5867 -13.0895 4.90462 0.786143 25.7167 10.6591 0.446588 -2.06289 -1.60325 1.28344 3.48891 -3.87596 0.748061 5.33223 1.95211 -9.52621 3.97569e-016 0 -0 -89.8411 -6.97644 -11.9212 -20.3712 20.5143 -42.6853 0.368473 9.90896 -0.00117927 12.4546 -1.5258 -11.2898 57.6202 -41.0961 -19.1287 21.8812 14.6707 14.1449 -0.369625 9.91382 0.00119887 3.27014 -8.69159 8.12196 4.38915 50.2386 13.6756 -2.91158 25.6377 0.767471 58.9975 -15.8771 3.21065 
13.2727 100.82 -74.9651 2.99507 -3.91921 -176.179 7.36463 -12.1054 8.82814 -0.305047 1.27778 -12.5555 -13.719 4.2153 0.747371 25.1948 10.7259 0.354183 -1.76184 -1.17591 1.18753 3.03649 -3.44512 0.676476 5.80928 1.21013 -9.57502 6.39838e-016 9.93923e-017 -0 -89.6041 -7.58002 -12.1383 -20.7484 19.8051 -38.8357 0.368473 9.90896 -0.00117927 11.9366 -1.38451 -10.7539 61.8288 -39.7922 -15.898 21.9316 15.0266 15.8761 -0.369625 9.91382 0.00119887 3.38451 -11.6939 8.36805 5.62721 54.4134 14.6504 -2.1606 27.4101 0.650099 48.8674 -11.5454 0.0907394 
13.5183 101.075 -76.6486 2.39466 -3.94177 -175.665 6.90781 -11.1333 7.33698 -0.403296 1.50382 -11.8172 -14.1512 3.48864 0.686176 25.0875 10.9171 0.242007 -1.87212 -1.24865 0.992096 2.12943 -2.48445 0.561987 6.29513 0.3192 -9.52742 3.66509e-016 0 7.95139e-016 -89.3575 -8.16713 -12.9922 -21.2377 19.0405 -34.3949 0.368473 9.90896 -0.00117927 11.8122 -1.28613 -10.2892 65.6678 -38.1131 -12.3076 21.9987 15.4004 17.6499 -0.369625 9.91382 0.00119887 2.75694 -14.9014 7.46456 5.55732 58.1731 17.7707 0.0495474 24.3834 0.119084 48.8358 -9.79891 -0.883909 
13.7354 101.332 -78.3051 1.58806 -4.03931 -175.187 6.24472 -10.3079 5.83048 -0.492488 1.87862 -10.9043 -14.5536 2.72641 0.61305 25.399 11.0656 0.197961 -2.06259 -1.51112 0.752667 1.07068 -1.44142 0.445161 6.6611 -0.441654 -9.36682 -4.47266e-016 -1.98785e-016 -0 -89.0739 -8.85131 -13.8923 -21.7464 18.1795 -29.7588 0.368473 9.90896 -0.00117927 11.7662 -1.16954 -9.68024 69.1446 -36.2928 -8.67535 21.9989 15.7459 19.3559 -0.369625 9.91382 0.00119887 1.66257 -18.1248 6.17657 4.59588 61.0821 21.809 2.33911 20.1096 -0.411416 49.4713 -9.26014 -1.03459 
13.8494 101.546 -79.9759 0.870317 -4.34802 -174.989 5.56506 -9.64042 5.10314 -0.424555 2.13681 -10.1348 -15.0008 1.83067 0.518827 26.5245 10.997 0.354973 -1.99611 -1.78625 0.534042 0.194808 -0.807165 0.379479 6.70156 -0.709419 -9.04652 4.22417e-016 1.98785e-016 7.95139e-016 -88.741 -9.75854 -14.1774 -22.3028 17.3342 -25.2715 0.368473 9.90896 -0.00117927 11.6708 -0.982077 -8.7431 72.0957 -34.6452 -5.15367 21.8625 16.0064 20.7192 -0.369625 9.91382 0.00119887 0.586115 -21.2755 5.26436 4.21362 62.7055 25.0867 3.49162 18.3642 -0.612583 44.3882 -9.48077 -0.815178 
13.9143 101.714 -81.6624 0.189725 -4.54926 -174.998 4.94899 -8.86423 4.88845 -0.363737 2.42771 -9.69724 -15.4399 0.952029 0.420191 27.807 10.8122 0.593731 -1.86182 -2.00108 0.340541 -0.506408 -0.197283 0.332096 6.52454 -0.738416 -8.54671 2.98177e-016 3.97569e-016 -1.59028e-015 -88.4339 -10.9805 -14.1161 -22.8119 16.5008 -21.0882 0.368473 9.90896 -0.00117927 11.1485 -0.756393 -7.62178 75.1132 -32.9681 -1.60886 21.5947 16.2062 21.9047 -0.369625 9.91382 0.00119887 -0.484982 -24.0497 4.65844 4.10755 63.3927 27.0779 4.21423 16.7325 -0.67153 37.0411 -10.112 -0.395309 
13.9574 101.811 -83.3933 -0.397832 -4.30843 -175.217 4.58725 -7.64051 5.37862 -0.447018 2.82434 -10.1913 -15.8362 0.257432 0.336024 28.6156 10.5181 0.849042 -1.74275 -1.98613 0.201889 -0.902746 0.635046 0.28847 6.16987 -0.648204 -7.81755 1.09332e-015 -3.97569e-016 -1.59028e-015 -88.1909 -12.6024 -13.7229 -23.2054 15.7312 -17.4882 0.368473 9.90896 -0.00117927 9.7497 -0.494879 -6.41132 78.7372 -31.1637 2.05501 21.1585 16.3377 22.9611 -0.369625 9.91382 0.00119887 -1.35747 -26.0424 4.63495 4.15144 63.3842 26.5265 4.82011 13.6282 -0.640717 27.7234 -10.4651 -0.149337 
13.9843 101.859 -85.1286 -0.914114 -3.80815 -175.661 4.34392 -6.17924 6.00444 -0.581896 3.28648 -10.7036 -16.2026 -0.399962 0.250065 29.2674 10.2218 1.0913 -1.61157 -1.85398 0.106906 -1.06684 1.61157 0.247819 5.62984 -0.479027 -6.90709 9.93923e-017 7.95139e-016 -0 -88.0639 -14.7744 -13.1056 -23.5329 15.0543 -14.4203 0.368473 9.90896 -0.00117927 7.56865 -0.237935 -5.07427 82.7758 -29.2003 5.68934 20.5949 16.4261 23.9657 -0.369625 9.91382 0.00119887 -1.98005 -27.4701 4.99728 4.34254 62.5428 24.8461 5.14879 10.338 -0.548729 19.5422 -11.112 0.084868 
14.0109 101.877 -86.8143 -1.35041 -3.03588 -176.411 4.23059 -4.47775 6.14178 -0.760909 3.75814 -10.2669 -16.5572 -1.05802 0.161447 29.869 10.0994 1.23182 -1.5073 -1.64219 0.0719159 -0.933911 2.8687 0.199609 4.85591 -0.363404 -5.79916 3.47873e-016 -7.95139e-016 -0 -88.2349 -17.818 -12.4805 -23.7954 14.4712 -11.8778 0.368473 9.90896 -0.00117927 4.22231 -0.023147 -3.56048 87.5923 -26.9651 9.27758 19.8597 16.4644 24.9725 -0.369625 9.91382 0.00119887 -2.26039 -28.357 5.71432 4.43278 60.7881 23.2435 5.07866 7.6955 -0.426807 17.0837 -12.7342 0.391261 
14.0347 101.855 -88.5204 -1.71172 -2.23972 -177.259 4.18916 -2.82299 6.17393 -0.96108 4.37844 -9.63832 -16.8544 -1.87675 0.0430673 30.4093 9.9509 1.38465 -1.3191 -1.40642 0.0439796 -0.78461 4.00923 0.158456 4.02286 -0.146476 -4.63626 -4.96962e-017 -1.59028e-015 -3.97569e-016 -88.3179 -21.3076 -11.5558 -24.0261 14.0353 -10.0191 0.368473 9.90896 -0.00117927 0.710135 0.136192 -2.00254 92.065 -24.6772 12.5426 19.157 16.5269 26.1039 -0.369625 9.91382 0.00119887 -2.34084 -28.8746 6.49937 4.16796 58.0992 21.949 4.76541 5.47416 -0.298444 16.2374 -14.3143 0.637521 
